# xmcd
#
# Track frame offsets: 
#        150
#        14367
#        28187
#        42787
#        62847
#        76120
#        90940
#        107035
#        119927
#        135237
#        151570
#        164247
#
# Disc length: 2397 seconds
#
# Revision: 3
# Processed by: cddbd v1.5.2PL0 Copyright (c) Steve Scherf et al.
# Submitted via: ExactAudioCopyFreeDBPlugin 1.0
#
DISCID=90095b0c
DTITLE=Linda Feller - Es wird höchste Zeit
DYEAR=1994
DGENRE=Country
TTITLE0=Tiefer als sonst
TTITLE1=Der Himmel hat keine Engel mehr
TTITLE2=Es wird höchste Zeit
TTITLE3=Eine Frau wird erst stark
TTITLE4=Damit ist jetzt Schluss
TTITLE5=Sonnenkinder sind wir alle
TTITLE6=And´re Mütter haben auch ein schönes Kind
TTITLE7=Du bist mein Leben
TTITLE8=Dass sowas mal passiert
TTITLE9=Ich schenk Dir meine Träume
TTITLE10=Das Fieber brennt
TTITLE11=Mit 25 Jahren
EXTD=
EXTT0=
EXTT1=
EXTT2=
EXTT3=
EXTT4=
EXTT5=
EXTT6=
EXTT7=
EXTT8=
EXTT9=
EXTT10=
EXTT11=
PLAYORDER=
